<?xml version="1.0" encoding="UTF-8"?>
<!DOCTYPE svg PUBLIC "-//W3C//DTD SVG 1.1//EN" "http://www.w3.org/Graphics/SVG/1.1/DTD/svg11.dtd">
<svg xmlns="http://www.w3.org/2000/svg" version="1.1" width="2700px" height="3600px" style="shape-rendering:geometricPrecision; text-rendering:geometricPrecision; image-rendering:optimizeQuality; fill-rule:evenodd; clip-rule:evenodd" xmlns:xlink="http://www.w3.org/1999/xlink">
<g><path style="opacity:0.995" fill="#000000" d="M 1351.5,206.5 C 1355.35,206.681 1357.01,208.681 1356.5,212.5C 1353.84,225.487 1351.17,238.487 1348.5,251.5C 1351.5,252.248 1354.5,252.915 1357.5,253.5C 1358.88,255.289 1359.88,257.289 1360.5,259.5C 1365.21,259.685 1368.87,261.685 1371.5,265.5C 1378.53,265.093 1383.36,268.093 1386,274.5C 1391.1,289.666 1389.94,304.333 1382.5,318.5C 1383.37,322.926 1385.7,326.259 1389.5,328.5C 1396.3,326.275 1402.64,327.442 1408.5,332C 1407.12,335.408 1405.12,338.408 1402.5,341C 1399.67,341.045 1397.17,341.879 1395,343.5C 1393.6,347.86 1392.1,352.193 1390.5,356.5C 1390.71,357.086 1391.04,357.586 1391.5,358C 1394.9,358.1 1398.07,358.934 1401,360.5C 1402.58,374.2 1405.08,387.7 1408.5,401C 1408.75,410.154 1408.25,419.321 1407,428.5C 1410.41,436.319 1414.08,443.986 1418,451.5C 1422.05,461.126 1423.72,471.126 1423,481.5C 1422.84,483.676 1422,485.509 1420.5,487C 1423.04,489.906 1425.2,493.073 1427,496.5C 1428.73,504.433 1430.06,512.433 1431,520.5C 1432.39,524.286 1434.06,527.952 1436,531.5C 1436.24,540.309 1439.9,547.309 1447,552.5C 1448,555.5 1449,558.5 1450,561.5C 1450.82,569.877 1451.82,578.211 1453,586.5C 1458.52,595.547 1463.52,604.88 1468,614.5C 1470.64,623.504 1472.14,632.504 1472.5,641.5C 1473.68,659.898 1477.85,677.565 1485,694.5C 1488.15,706.517 1488.15,718.517 1485,730.5C 1479.91,739.349 1475.91,748.682 1473,758.5C 1470.35,772.564 1468.52,786.731 1467.5,801C 1468.13,808.522 1468.96,816.022 1470,823.5C 1475.36,839.549 1482.36,854.882 1491,869.5C 1506.44,887.273 1522.27,904.773 1538.5,922C 1566.19,941.846 1593.52,962.179 1620.5,983C 1646.6,1006.44 1672.1,1030.6 1697,1055.5C 1702,1063.48 1707.5,1071.15 1713.5,1078.5C 1720,1094.49 1727,1110.32 1734.5,1126C 1733.59,1129.24 1731.59,1131.58 1728.5,1133C 1722.32,1135.46 1715.99,1137.46 1709.5,1139C 1687.89,1141.67 1666.22,1143.84 1644.5,1145.5C 1642.65,1147.99 1642.82,1150.65 1645,1153.5C 1646.95,1181.2 1649.11,1208.7 1651.5,1236C 1650.47,1243.24 1647.63,1249.74 1643,1255.5C 1631.78,1266.39 1620.94,1277.56 1610.5,1289C 1605.34,1293.41 1599.68,1297.08 1593.5,1300C 1592.83,1301 1592.17,1302 1591.5,1303C 1587.77,1304.54 1584.11,1305.87 1580.5,1307C 1573.33,1314.68 1565.66,1321.68 1557.5,1328C 1542.9,1336.94 1528.56,1346.27 1514.5,1356C 1514.91,1365.01 1515.41,1374.17 1516,1383.5C 1526.48,1397.01 1531.48,1412.34 1531,1429.5C 1533,1432.83 1535,1436.17 1537,1439.5C 1539.91,1449.13 1542.57,1458.8 1545,1468.5C 1546.38,1474.44 1545.21,1479.77 1541.5,1484.5C 1543.61,1489.89 1546.61,1494.72 1550.5,1499C 1555.09,1499.2 1559.59,1499.7 1564,1500.5C 1567.58,1524.83 1571.25,1549.16 1575,1573.5C 1578.83,1627.34 1584.67,1680.51 1592.5,1733C 1591.17,1746.08 1591.84,1759.08 1594.5,1772C 1594.35,1774.2 1594.02,1776.36 1593.5,1778.5C 1595.18,1787.5 1597.68,1796.16 1601,1804.5C 1603.13,1820.86 1603.8,1837.19 1603,1853.5C 1892.78,1853.06 2181.44,1853.06 2469,1853.5C 2496.33,1852.83 2523.67,1852.17 2551,1851.5C 2584.36,1852.48 2617.36,1852.48 2650,1851.5C 2650.69,1852.03 2651.19,1852.69 2651.5,1853.5C 2511.05,1956.36 2370.89,2057.7 2231,2157.5C 2117.16,2240.91 2003.49,2322.91 1890,2403.5C 1889,2404.83 1888,2406.17 1887,2407.5C 1886.67,2407.17 1886.33,2406.83 1886,2406.5C 1885,2407.83 1884,2409.17 1883,2410.5C 1882.67,2410.17 1882.33,2409.83 1882,2409.5C 1874.37,2415.39 1866.87,2421.39 1859.5,2427.5C 1940.82,2690.47 2021.99,2953.47 2103,3216.5C 2121,3275.18 2138.66,3333.84 2156,3392.5C 1887.08,3188.95 1618.24,2985.29 1349.5,2781.5C 1080.76,2985.29 811.923,3188.95 543,3392.5C 560.336,3333.84 578.002,3275.18 596,3216.5C 677.008,2953.47 758.175,2690.47 839.5,2427.5C 832.13,2421.39 824.63,2415.39 817,2409.5C 595.422,2250.52 374.589,2091.02 154.5,1931C 118.883,1906.37 83.2166,1880.54 47.5,1853.5C 47.8076,1852.69 48.3076,1852.03 49,1851.5C 81.6425,1852.48 114.643,1852.48 148,1851.5C 175.333,1852.17 202.667,1852.83 230,1853.5C 368.158,1853.65 508.492,1853.32 651,1852.5C 670.333,1853.17 689.667,1853.83 709,1854.5C 824.604,1854.44 938.77,1854.44 1051.5,1854.5C 1052.5,1854.17 1053.5,1853.83 1054.5,1853.5C 1051.71,1847.02 1052.04,1840.69 1055.5,1834.5C 1071.96,1827.72 1088.63,1821.55 1105.5,1816C 1110.99,1811.84 1116.15,1807.34 1121,1802.5C 1122.94,1798.89 1125.28,1795.56 1128,1792.5C 1130.14,1786.42 1132.47,1780.42 1135,1774.5C 1138.36,1756.88 1140.86,1739.38 1142.5,1722C 1144.96,1718.95 1146.46,1715.45 1147,1711.5C 1149.04,1689.96 1152.37,1668.63 1157,1647.5C 1158.21,1629.41 1160.21,1611.41 1163,1593.5C 1167.71,1569.63 1172.54,1545.79 1177.5,1522C 1176.98,1521.44 1176.64,1520.77 1176.5,1520C 1177.49,1515.55 1178.16,1511.05 1178.5,1506.5C 1181.21,1506.58 1183.87,1506.91 1186.5,1507.5C 1186.51,1501.13 1186.01,1494.8 1185,1488.5C 1183.21,1487.22 1182.05,1485.56 1181.5,1483.5C 1183.41,1479.74 1184.58,1475.74 1185,1471.5C 1185.67,1470.83 1186.33,1470.17 1187,1469.5C 1187.33,1466.5 1187.67,1463.5 1188,1460.5C 1189.6,1455.79 1191.93,1451.46 1195,1447.5C 1195.33,1439.17 1195.67,1430.83 1196,1422.5C 1199.62,1419.29 1202.79,1415.62 1205.5,1411.5C 1204.29,1407.26 1203.63,1402.93 1203.5,1398.5C 1205.59,1391.53 1206.92,1384.36 1207.5,1377C 1206.29,1363.17 1206.96,1349.33 1209.5,1335.5C 1209.72,1316.9 1213.22,1298.9 1220,1281.5C 1220.93,1275.48 1221.93,1269.48 1223,1263.5C 1231.55,1244.66 1238.39,1225.33 1243.5,1205.5C 1240.21,1196.47 1237.21,1187.3 1234.5,1178C 1235.89,1170.89 1238.89,1164.56 1243.5,1159C 1240.61,1156.09 1239.77,1152.59 1241,1148.5C 1244.86,1138.23 1248.7,1128.06 1252.5,1118C 1252.09,1116.86 1251.76,1115.69 1251.5,1114.5C 1252.51,1105.78 1253.85,1097.11 1255.5,1088.5C 1254.73,1082.16 1253.9,1075.83 1253,1069.5C 1246.27,1050.38 1239.27,1031.38 1232,1012.5C 1227.42,993.162 1221.75,974.162 1215,955.5C 1212.68,944.892 1210.68,934.225 1209,923.5C 1208.46,902.947 1210.46,882.613 1215,862.5C 1219,849.829 1223,837.162 1227,824.5C 1227.41,821.318 1227.91,818.151 1228.5,815C 1224.74,807.326 1224.24,799.492 1227,791.5C 1232.67,784.5 1238.33,777.5 1244,770.5C 1244.33,764.167 1244.67,757.833 1245,751.5C 1247.03,746.136 1250.53,741.969 1255.5,739C 1258,737.247 1260.67,735.747 1263.5,734.5C 1266.08,735.393 1268.75,735.726 1271.5,735.5C 1271.28,733.213 1270.61,731.047 1269.5,729C 1270.33,727.535 1270.5,726.035 1270,724.5C 1263.5,713.491 1256.5,702.824 1249,692.5C 1238.35,670.558 1229.69,647.892 1223,624.5C 1221.57,611.259 1222.57,598.259 1226,585.5C 1229.99,581.527 1232.82,576.861 1234.5,571.5C 1238.02,568.813 1241.02,565.647 1243.5,562C 1263.79,552.586 1284.79,551.252 1306.5,558C 1315.17,563.667 1323.83,569.333 1332.5,575C 1334.04,576.878 1335.88,578.378 1338,579.5C 1341.27,591.728 1344.27,604.062 1347,616.5C 1348.6,618.656 1350.77,619.99 1353.5,620.5C 1357.5,626.185 1359.5,632.518 1359.5,639.5C 1358.07,644.233 1358.23,648.9 1360,653.5C 1361.84,646.824 1362.68,639.991 1362.5,633C 1362.25,625.484 1361.75,617.984 1361,610.5C 1359.42,596.111 1357.42,581.778 1355,567.5C 1349.74,557.516 1348.57,547.183 1351.5,536.5C 1349.52,532.605 1348.85,528.605 1349.5,524.5C 1347.34,511.286 1346.17,497.953 1346,484.5C 1341.96,480.248 1338.79,475.415 1336.5,470C 1334.64,460.226 1333.14,450.393 1332,440.5C 1328.92,438.012 1328.76,435.345 1331.5,432.5C 1330.42,430.789 1329.09,429.289 1327.5,428C 1328.41,426.211 1328.58,424.377 1328,422.5C 1321.85,416.266 1320.85,409.266 1325,401.5C 1326.43,390.734 1325.1,380.401 1321,370.5C 1315.67,366.5 1310.33,362.5 1305,358.5C 1304.29,356.633 1304.79,355.133 1306.5,354C 1302.02,350.686 1298.02,346.852 1294.5,342.5C 1296.95,338.88 1299.95,335.713 1303.5,333C 1313.41,328.406 1322.41,322.906 1330.5,316.5C 1326.25,309.995 1323.08,302.995 1321,295.5C 1320.33,292.833 1320.33,290.167 1321,287.5C 1325.19,278.618 1329.19,269.618 1333,260.5C 1333.53,253.759 1334.53,247.093 1336,240.5C 1339.19,231.919 1342.19,223.253 1345,214.5C 1346.48,211.172 1348.65,208.506 1351.5,206.5 Z M 1307.5,777.5 C 1314.98,779.124 1317.15,783.458 1314,790.5C 1307.53,794.842 1303.37,793.175 1301.5,785.5C 1301.65,781.357 1303.65,778.691 1307.5,777.5 Z M 1320.5,837.5 C 1327.98,839.124 1330.15,843.458 1327,850.5C 1320.53,854.842 1316.37,853.175 1314.5,845.5C 1314.65,841.357 1316.65,838.691 1320.5,837.5 Z M 1336.5,901.5 C 1343.98,903.124 1346.15,907.458 1343,914.5C 1336.53,918.842 1332.37,917.175 1330.5,909.5C 1330.65,905.357 1332.65,902.691 1336.5,901.5 Z M 1373.5,1337.5 C 1377.36,1344.21 1381.86,1350.54 1387,1356.5C 1395.04,1372.96 1401.71,1389.96 1407,1407.5C 1414.79,1424.41 1423.12,1441.08 1432,1457.5C 1431.61,1461.88 1433.28,1465.21 1437,1467.5C 1437.9,1469.8 1438.73,1472.14 1439.5,1474.5C 1441.06,1475.07 1442.56,1475.74 1444,1476.5C 1446.86,1483.42 1449.53,1490.42 1452,1497.5C 1456.43,1499.12 1460.93,1500.62 1465.5,1502C 1468.86,1509.07 1472.02,1516.23 1475,1523.5C 1479.59,1539.94 1484.59,1556.28 1490,1572.5C 1495.75,1596.58 1501.75,1620.58 1508,1644.5C 1510.5,1662.33 1513.83,1680 1518,1697.5C 1519.85,1710.47 1521.52,1723.47 1523,1736.5C 1524.04,1739.11 1525.54,1741.45 1527.5,1743.5C 1524.77,1750.37 1521.44,1756.87 1517.5,1763C 1520.56,1767.88 1522.56,1773.21 1523.5,1779C 1522.64,1781.23 1521.64,1783.39 1520.5,1785.5C 1521.04,1789.96 1520.21,1794.3 1518,1798.5C 1509.06,1809.92 1499.56,1820.76 1489.5,1831C 1485.34,1830.74 1482,1832.24 1479.5,1835.5C 1477.91,1838.58 1476.58,1841.74 1475.5,1845C 1478.19,1847.84 1478.86,1851 1477.5,1854.5C 1394.79,1854.74 1312.46,1854.74 1230.5,1854.5C 1229.89,1828.45 1228.39,1802.45 1226,1776.5C 1224.61,1772.72 1222.95,1769.06 1221,1765.5C 1220.33,1762.5 1220.33,1759.5 1221,1756.5C 1224.79,1750.59 1227.79,1744.26 1230,1737.5C 1230.7,1730.71 1232.03,1724.04 1234,1717.5C 1242.16,1691.15 1249.5,1664.82 1256,1638.5C 1263.25,1602.18 1269.42,1565.68 1274.5,1529C 1274.22,1525.64 1272.88,1522.81 1270.5,1520.5C 1270.98,1519.52 1271.64,1518.69 1272.5,1518C 1275.15,1517.5 1277.81,1517.34 1280.5,1517.5C 1282.07,1511.28 1283.24,1504.95 1284,1498.5C 1288.67,1492.17 1293.33,1485.83 1298,1479.5C 1297.96,1475.12 1297.63,1470.78 1297,1466.5C 1306.77,1454.53 1314.27,1441.2 1319.5,1426.5C 1318.75,1424.07 1318.42,1421.74 1318.5,1419.5C 1332.68,1397.13 1347.85,1375.47 1364,1354.5C 1367.02,1348.67 1370.19,1343 1373.5,1337.5 Z M 1158.5,1850.5 C 1159.43,1851.57 1159.77,1852.9 1159.5,1854.5C 1157.47,1854.66 1155.47,1854.5 1153.5,1854C 1155.35,1852.97 1157.01,1851.8 1158.5,1850.5 Z"/></g>
<g><path style="opacity:1" fill="#f9f9f9" d="M 958.5,2024.5 C 961.292,2024.45 963.125,2025.79 964,2028.5C 977.447,2063.39 991.447,2098.06 1006,2132.5C 1009.82,2139.33 1015.65,2142.33 1023.5,2141.5C 1023.5,2142.5 1023.5,2143.5 1023.5,2144.5C 1010.17,2144.5 996.833,2144.5 983.5,2144.5C 984.179,2142.33 985.179,2140.33 986.5,2138.5C 982.577,2126.83 978.244,2115.33 973.5,2104C 961.591,2103.18 949.757,2103.35 938,2104.5C 933.496,2114.35 929.996,2124.51 927.5,2135C 927.305,2137.35 927.972,2139.35 929.5,2141C 932.146,2141.5 934.813,2141.66 937.5,2141.5C 937.5,2142.5 937.5,2143.5 937.5,2144.5C 924.167,2144.5 910.833,2144.5 897.5,2144.5C 897.5,2143.5 897.5,2142.5 897.5,2141.5C 904.519,2142.39 910.019,2140.06 914,2134.5C 928.572,2097.69 943.406,2061.03 958.5,2024.5 Z"/></g>
<g><path style="opacity:1" fill="#f7f7f7" d="M 1090.5,2024.5 C 1092.39,2024.3 1093.89,2024.96 1095,2026.5C 1109.15,2055.96 1123.48,2085.29 1138,2114.5C 1152,2085.17 1166,2055.83 1180,2026.5C 1181.13,2024.79 1182.63,2024.29 1184.5,2025C 1190.59,2061.07 1196.43,2097.24 1202,2133.5C 1202.35,2135.85 1203.51,2137.68 1205.5,2139C 1210.16,2140.12 1214.83,2141.29 1219.5,2142.5C 1219.29,2143.09 1218.96,2143.59 1218.5,2144C 1206.83,2144.67 1195.17,2144.67 1183.5,2144C 1182.23,2143.69 1181.07,2143.19 1180,2142.5C 1181.39,2138.06 1181.73,2133.39 1181,2128.5C 1178.33,2107.78 1175.33,2087.11 1172,2066.5C 1159.94,2092.29 1147.61,2117.96 1135,2143.5C 1134.44,2144.02 1133.77,2144.36 1133,2144.5C 1129.18,2139.53 1125.84,2134.2 1123,2128.5C 1113.06,2108.29 1103.39,2087.95 1094,2067.5C 1091.12,2089.01 1088.29,2110.51 1085.5,2132C 1085.67,2134.17 1085.83,2136.33 1086,2138.5C 1089.8,2140.7 1093.97,2141.7 1098.5,2141.5C 1098.5,2142.5 1098.5,2143.5 1098.5,2144.5C 1085.83,2144.5 1073.17,2144.5 1060.5,2144.5C 1060.5,2143.5 1060.5,2142.5 1060.5,2141.5C 1065.74,2142.73 1069.58,2141.06 1072,2136.5C 1077.85,2099.04 1084.02,2061.7 1090.5,2024.5 Z"/></g>
<g><path style="opacity:1" fill="#fcfcfc" d="M 1601.5,2037.5 C 1593.68,2036.51 1585.68,2036.17 1577.5,2036.5C 1577.17,2063.67 1577.5,2090.67 1578.5,2117.5C 1578.33,2122.84 1578.5,2128.18 1579,2133.5C 1579.61,2136.55 1581.11,2139.05 1583.5,2141C 1587.49,2141.5 1591.49,2141.67 1595.5,2141.5C 1595.5,2142.5 1595.5,2143.5 1595.5,2144.5C 1579.16,2144.67 1562.83,2144.5 1546.5,2144C 1545.17,2143.33 1545.17,2142.67 1546.5,2142C 1549.17,2141.67 1551.83,2141.33 1554.5,2141C 1557.89,2136.06 1559.22,2130.56 1558.5,2124.5C 1559.5,2095.34 1559.83,2066 1559.5,2036.5C 1554.64,2036.18 1549.97,2036.51 1545.5,2037.5C 1538.76,2037.17 1532.09,2037.67 1525.5,2039C 1521.91,2040.76 1519.57,2043.6 1518.5,2047.5C 1517.68,2048.39 1516.68,2048.72 1515.5,2048.5C 1515.57,2041 1516.73,2033.67 1519,2026.5C 1519.56,2025.98 1520.23,2025.64 1521,2025.5C 1525.13,2026.24 1529.29,2026.74 1533.5,2027C 1562.16,2027.5 1590.83,2027.67 1619.5,2027.5C 1619.67,2034.51 1619.5,2041.51 1619,2048.5C 1618.39,2050.48 1617.39,2050.81 1616,2049.5C 1616.13,2046.06 1614.97,2043.23 1612.5,2041C 1609.01,2039.2 1605.34,2038.03 1601.5,2037.5 Z"/></g>
<g><path style="opacity:1" fill="#f9f9f9" d="M 1726.5,2025.5 C 1743.71,2023.69 1760.04,2026.52 1775.5,2034C 1795.49,2047.49 1803.99,2066.33 1801,2090.5C 1796.84,2121.66 1779.34,2140.16 1748.5,2146C 1708.99,2150.13 1684.83,2132.96 1676,2094.5C 1673.93,2057.43 1690.77,2034.43 1726.5,2025.5 Z"/></g>
<g><path style="opacity:1" fill="#f7f7f7" d="M 1876.5,2025.5 C 1877.55,2025.35 1878.55,2025.52 1879.5,2026C 1907.99,2054.99 1936.32,2084.15 1964.5,2113.5C 1964.83,2110.83 1965.17,2108.17 1965.5,2105.5C 1964.76,2082.84 1964.26,2060.17 1964,2037.5C 1962.85,2035.35 1961.35,2033.52 1959.5,2032C 1955.89,2031.06 1952.22,2030.56 1948.5,2030.5C 1948.5,2029.5 1948.5,2028.5 1948.5,2027.5C 1962.17,2027.5 1975.83,2027.5 1989.5,2027.5C 1989.5,2028.5 1989.5,2029.5 1989.5,2030.5C 1983.61,2029.07 1979.44,2031.07 1977,2036.5C 1976.65,2072.55 1975.82,2108.55 1974.5,2144.5C 1973.28,2145.61 1971.94,2145.78 1970.5,2145C 1952.3,2126.47 1933.8,2108.3 1915,2090.5C 1905.67,2080.5 1896.33,2070.5 1887,2060.5C 1886.42,2085.21 1887.08,2109.88 1889,2134.5C 1889.45,2136.52 1890.28,2138.35 1891.5,2140C 1895.77,2140.17 1899.77,2141.17 1903.5,2143C 1896.33,2144.15 1888.99,2144.65 1881.5,2144.5C 1874.5,2144.17 1867.5,2143.83 1860.5,2143.5C 1860.71,2142.91 1861.04,2142.41 1861.5,2142C 1864.79,2141.12 1868.12,2140.45 1871.5,2140C 1873.02,2137.4 1873.85,2134.57 1874,2131.5C 1874.79,2096.14 1875.63,2060.81 1876.5,2025.5 Z"/></g>
<g><path style="opacity:1" fill="#fafafa" d="M 723.5,2027.5 C 739.655,2027.02 755.655,2027.52 771.5,2029C 768.34,2030.37 765.006,2031.37 761.5,2032C 760.299,2032.9 759.465,2034.07 759,2035.5C 758.5,2049.5 758.333,2063.5 758.5,2077.5C 778.167,2077.5 797.833,2077.5 817.5,2077.5C 817.667,2063.5 817.5,2049.5 817,2035.5C 813.029,2031.66 808.195,2029.99 802.5,2030.5C 802.5,2029.5 802.5,2028.5 802.5,2027.5C 818.5,2027.5 834.5,2027.5 850.5,2027.5C 850.5,2028.5 850.5,2029.5 850.5,2030.5C 844.511,2029.07 840.345,2031.07 838,2036.5C 837.333,2068.83 837.333,2101.17 838,2133.5C 838.763,2136.47 840.263,2138.97 842.5,2141C 846.486,2141.5 850.486,2141.67 854.5,2141.5C 854.5,2142.5 854.5,2143.5 854.5,2144.5C 837.679,2144.98 821.012,2144.48 804.5,2143C 807.597,2141.39 810.931,2140.39 814.5,2140C 815.126,2139.25 815.626,2138.42 816,2137.5C 817.412,2120.21 817.912,2102.88 817.5,2085.5C 797.833,2085.5 778.167,2085.5 758.5,2085.5C 758.072,2102.88 758.572,2120.21 760,2137.5C 761.167,2138.67 762.333,2139.83 763.5,2141C 767.152,2141.5 770.818,2141.67 774.5,2141.5C 774.5,2142.5 774.5,2143.5 774.5,2144.5C 758.167,2144.5 741.833,2144.5 725.5,2144.5C 725.5,2143.5 725.5,2142.5 725.5,2141.5C 734.788,2142.38 738.954,2138.04 738,2128.5C 738.667,2097.83 738.667,2067.17 738,2036.5C 734.731,2031.05 729.898,2029.05 723.5,2030.5C 723.5,2029.5 723.5,2028.5 723.5,2027.5 Z"/></g>
<g><path style="opacity:1" fill="#fdfdfd" d="M 1275.5,2027.5 C 1290.5,2027.5 1305.5,2027.5 1320.5,2027.5C 1320.5,2028.5 1320.5,2029.5 1320.5,2030.5C 1314.35,2029.58 1310.18,2031.92 1308,2037.5C 1307.33,2067.83 1307.33,2098.17 1308,2128.5C 1307.69,2140.02 1313.19,2144.35 1324.5,2141.5C 1324.5,2142.5 1324.5,2143.5 1324.5,2144.5C 1308.17,2144.5 1291.83,2144.5 1275.5,2144.5C 1275.5,2143.5 1275.5,2142.5 1275.5,2141.5C 1280.74,2142.73 1284.58,2141.06 1287,2136.5C 1288.12,2118.53 1288.62,2100.53 1288.5,2082.5C 1288.33,2066.83 1288.17,2051.17 1288,2035.5C 1285.11,2031.01 1280.95,2029.34 1275.5,2030.5C 1275.5,2029.5 1275.5,2028.5 1275.5,2027.5 Z"/></g>
<g><path style="opacity:1" fill="#f8f8f8" d="M 1387.5,2027.5 C 1403.5,2027.5 1419.5,2027.5 1435.5,2027.5C 1435.5,2028.5 1435.5,2029.5 1435.5,2030.5C 1432.15,2030.33 1428.82,2030.5 1425.5,2031C 1423.95,2032.21 1422.78,2033.71 1422,2035.5C 1421.04,2067.21 1421.37,2098.87 1423,2130.5C 1423.47,2131.93 1424.3,2133.1 1425.5,2134C 1434.72,2136.95 1444.05,2137.28 1453.5,2135C 1456.46,2134.77 1458.96,2133.6 1461,2131.5C 1462.73,2128.36 1463.89,2125.03 1464.5,2121.5C 1465.32,2120.61 1466.32,2120.28 1467.5,2120.5C 1467.82,2127.64 1466.99,2134.64 1465,2141.5C 1464.17,2142.33 1463.33,2143.17 1462.5,2144C 1437.84,2144.5 1413.17,2144.67 1388.5,2144.5C 1388.5,2143.5 1388.5,2142.5 1388.5,2141.5C 1394.35,2143 1398.18,2141 1400,2135.5C 1401.55,2102.52 1401.88,2069.52 1401,2036.5C 1400.22,2034.71 1399.05,2033.21 1397.5,2032C 1394.21,2031.17 1390.87,2030.67 1387.5,2030.5C 1387.5,2029.5 1387.5,2028.5 1387.5,2027.5 Z"/></g>
<g><path style="opacity:1" fill="#010101" d="M 1726.5,2033.5 C 1752.52,2032.03 1769.35,2043.69 1777,2068.5C 1781.44,2087.91 1779.44,2106.57 1771,2124.5C 1757.09,2139.46 1740.92,2142.29 1722.5,2133C 1712.38,2126.2 1705.21,2117.03 1701,2105.5C 1696.42,2089.14 1696.42,2072.81 1701,2056.5C 1705.75,2044.56 1714.25,2036.9 1726.5,2033.5 Z"/></g>
<g><path style="opacity:1" fill="#a6a6a6" d="M 1545.5,2037.5 C 1549.97,2036.51 1554.64,2036.18 1559.5,2036.5C 1559.83,2066 1559.5,2095.34 1558.5,2124.5C 1558.5,2095.5 1558.5,2066.5 1558.5,2037.5C 1554.17,2037.5 1549.83,2037.5 1545.5,2037.5 Z"/></g>
<g><path style="opacity:1" fill="#cecece" d="M 1601.5,2037.5 C 1593.83,2037.5 1586.17,2037.5 1578.5,2037.5C 1578.5,2064.17 1578.5,2090.83 1578.5,2117.5C 1577.5,2090.67 1577.17,2063.67 1577.5,2036.5C 1585.68,2036.17 1593.68,2036.51 1601.5,2037.5 Z"/></g>
<g><path style="opacity:1" fill="#050505" d="M 955.5,2056.5 C 961,2068.85 966,2081.52 970.5,2094.5C 960.856,2095.5 951.19,2095.83 941.5,2095.5C 946.163,2082.51 950.83,2069.51 955.5,2056.5 Z"/></g>
<g><path style="opacity:1" fill="#bfb990" d="M 960.5,2246.5 C 964.5,2246.5 968.5,2246.5 972.5,2246.5C 976.167,2266.5 979.834,2286.5 983.5,2306.5C 979.833,2306.5 976.167,2306.5 972.5,2306.5C 971.833,2302.5 971.167,2298.5 970.5,2294.5C 967.5,2294.5 964.5,2294.5 961.5,2294.5C 961.348,2298.26 960.681,2301.93 959.5,2305.5C 956.232,2306.49 952.898,2306.82 949.5,2306.5C 952.911,2286.45 956.577,2266.45 960.5,2246.5 Z"/></g>
<g><path style="opacity:1" fill="#c5bf94" d="M 998.5,2246.5 C 1001.9,2246.18 1005.23,2246.51 1008.5,2247.5C 1011.82,2256.44 1014.99,2265.44 1018,2274.5C 1018.5,2265.17 1018.67,2255.84 1018.5,2246.5C 1021.83,2246.5 1025.17,2246.5 1028.5,2246.5C 1028.5,2266.5 1028.5,2286.5 1028.5,2306.5C 1025.22,2306.78 1022.06,2306.45 1019,2305.5C 1015.47,2295.91 1012.14,2286.24 1009,2276.5C 1008.5,2286.49 1008.33,2296.49 1008.5,2306.5C 1005.17,2306.5 1001.83,2306.5 998.5,2306.5C 998.5,2286.5 998.5,2266.5 998.5,2246.5 Z"/></g>
<g><path style="opacity:1" fill="#bfb990" d="M 1079.5,2246.5 C 1083.5,2246.5 1087.5,2246.5 1091.5,2246.5C 1095.17,2266.5 1098.83,2286.5 1102.5,2306.5C 1098.83,2306.5 1095.17,2306.5 1091.5,2306.5C 1090.83,2302.5 1090.17,2298.5 1089.5,2294.5C 1086.5,2294.5 1083.5,2294.5 1080.5,2294.5C 1080.35,2298.26 1079.68,2301.93 1078.5,2305.5C 1075.23,2306.49 1071.9,2306.82 1068.5,2306.5C 1071.91,2286.45 1075.58,2266.45 1079.5,2246.5 Z"/></g>
<g><path style="opacity:1" fill="#c5bf94" d="M 1116.5,2246.5 C 1120.17,2246.5 1123.83,2246.5 1127.5,2246.5C 1129.36,2253.57 1131.52,2260.57 1134,2267.5C 1136.48,2260.57 1138.64,2253.57 1140.5,2246.5C 1144.17,2246.5 1147.83,2246.5 1151.5,2246.5C 1151.5,2266.5 1151.5,2286.5 1151.5,2306.5C 1148.17,2306.5 1144.83,2306.5 1141.5,2306.5C 1141.67,2295.16 1141.5,2283.83 1141,2272.5C 1138.67,2279.17 1136.33,2285.83 1134,2292.5C 1131.67,2285.83 1129.33,2279.17 1127,2272.5C 1126.5,2283.83 1126.33,2295.16 1126.5,2306.5C 1123.17,2306.5 1119.83,2306.5 1116.5,2306.5C 1116.5,2286.5 1116.5,2266.5 1116.5,2246.5 Z"/></g>
<g><path style="opacity:1" fill="#c3bd93" d="M 1169.5,2246.5 C 1177.17,2246.5 1184.83,2246.5 1192.5,2246.5C 1192.5,2249.83 1192.5,2253.17 1192.5,2256.5C 1188.5,2256.5 1184.5,2256.5 1180.5,2256.5C 1180.5,2261.5 1180.5,2266.5 1180.5,2271.5C 1184.17,2271.5 1187.83,2271.5 1191.5,2271.5C 1191.5,2274.83 1191.5,2278.17 1191.5,2281.5C 1187.83,2281.5 1184.17,2281.5 1180.5,2281.5C 1180.5,2286.5 1180.5,2291.5 1180.5,2296.5C 1184.5,2296.5 1188.5,2296.5 1192.5,2296.5C 1192.5,2299.83 1192.5,2303.17 1192.5,2306.5C 1184.83,2306.5 1177.17,2306.5 1169.5,2306.5C 1169.5,2286.5 1169.5,2266.5 1169.5,2246.5 Z"/></g>
<g><path style="opacity:1" fill="#c0ba91" d="M 1209.5,2246.5 C 1216.26,2246.12 1222.92,2246.62 1229.5,2248C 1237.71,2253.26 1240.87,2260.76 1239,2270.5C 1237.69,2275.13 1235.52,2279.3 1232.5,2283C 1234.97,2290.76 1237.64,2298.43 1240.5,2306C 1236.46,2306.83 1232.46,2306.66 1228.5,2305.5C 1226.28,2298.68 1223.78,2292.02 1221,2285.5C 1220.5,2292.49 1220.33,2299.49 1220.5,2306.5C 1216.83,2306.5 1213.17,2306.5 1209.5,2306.5C 1209.5,2286.5 1209.5,2266.5 1209.5,2246.5 Z"/></g>
<g><path style="opacity:1" fill="#c0ba90" d="M 1255.5,2246.5 C 1259.17,2246.5 1262.83,2246.5 1266.5,2246.5C 1266.5,2266.5 1266.5,2286.5 1266.5,2306.5C 1262.83,2306.5 1259.17,2306.5 1255.5,2306.5C 1255.5,2286.5 1255.5,2266.5 1255.5,2246.5 Z"/></g>
<g><path style="opacity:1" fill="#beb88f" d="M 1294.5,2246.5 C 1298.44,2246.21 1302.27,2246.54 1306,2247.5C 1306.67,2251.17 1306.67,2254.83 1306,2258.5C 1303.26,2257.39 1300.43,2257.22 1297.5,2258C 1296.3,2258.9 1295.47,2260.07 1295,2261.5C 1293.46,2270.1 1293.12,2278.77 1294,2287.5C 1295.05,2295.75 1299.22,2298.09 1306.5,2294.5C 1309.54,2305.19 1305.54,2309.03 1294.5,2306C 1287.82,2302.18 1283.99,2296.34 1283,2288.5C 1282.11,2279.1 1282.45,2269.77 1284,2260.5C 1285.83,2254.51 1289.33,2249.85 1294.5,2246.5 Z"/></g>
<g><path style="opacity:1" fill="#bfb990" d="M 1331.5,2246.5 C 1335.5,2246.5 1339.5,2246.5 1343.5,2246.5C 1347.17,2266.5 1350.83,2286.5 1354.5,2306.5C 1350.83,2306.5 1347.17,2306.5 1343.5,2306.5C 1342.83,2302.5 1342.17,2298.5 1341.5,2294.5C 1338.5,2294.5 1335.5,2294.5 1332.5,2294.5C 1332.35,2298.26 1331.68,2301.93 1330.5,2305.5C 1327.23,2306.49 1323.9,2306.82 1320.5,2306.5C 1323.91,2286.45 1327.58,2266.45 1331.5,2246.5 Z"/></g>
<g><path style="opacity:1" fill="#c5bf94" d="M 1369.5,2246.5 C 1372.9,2246.18 1376.23,2246.51 1379.5,2247.5C 1382.82,2256.44 1385.99,2265.44 1389,2274.5C 1389.5,2265.17 1389.67,2255.84 1389.5,2246.5C 1392.83,2246.5 1396.17,2246.5 1399.5,2246.5C 1399.5,2266.5 1399.5,2286.5 1399.5,2306.5C 1396.22,2306.78 1393.06,2306.45 1390,2305.5C 1386.47,2295.91 1383.14,2286.24 1380,2276.5C 1379.5,2286.49 1379.33,2296.49 1379.5,2306.5C 1376.17,2306.5 1372.83,2306.5 1369.5,2306.5C 1369.5,2286.5 1369.5,2266.5 1369.5,2246.5 Z"/></g>
<g><path style="opacity:1" fill="#c5bf94" d="M 1442.5,2246.5 C 1446.17,2246.5 1449.83,2246.5 1453.5,2246.5C 1455.36,2253.57 1457.52,2260.57 1460,2267.5C 1462.48,2260.57 1464.64,2253.57 1466.5,2246.5C 1470.17,2246.5 1473.83,2246.5 1477.5,2246.5C 1477.5,2266.5 1477.5,2286.5 1477.5,2306.5C 1474.17,2306.5 1470.83,2306.5 1467.5,2306.5C 1467.67,2295.16 1467.5,2283.83 1467,2272.5C 1464.67,2279.17 1462.33,2285.83 1460,2292.5C 1457.67,2285.83 1455.33,2279.17 1453,2272.5C 1452.5,2283.83 1452.33,2295.16 1452.5,2306.5C 1449.17,2306.5 1445.83,2306.5 1442.5,2306.5C 1442.5,2286.5 1442.5,2266.5 1442.5,2246.5 Z"/></g>
<g><path style="opacity:1" fill="#c4bf94" d="M 1495.5,2246.5 C 1498.83,2246.5 1502.17,2246.5 1505.5,2246.5C 1505.33,2262.5 1505.5,2278.5 1506,2294.5C 1510.12,2298.97 1512.78,2298.3 1514,2292.5C 1514.5,2277.17 1514.67,2261.84 1514.5,2246.5C 1517.83,2246.5 1521.17,2246.5 1524.5,2246.5C 1524.67,2263.5 1524.5,2280.5 1524,2297.5C 1519.66,2307.36 1512.5,2310.19 1502.5,2306C 1499.13,2303.64 1496.96,2300.47 1496,2296.5C 1495.5,2279.84 1495.33,2263.17 1495.5,2246.5 Z"/></g>
<g><path style="opacity:1" fill="#bfb990" d="M 1549.5,2246.5 C 1553.51,2246.33 1557.51,2246.5 1561.5,2247C 1562.42,2247.37 1563.25,2247.87 1564,2248.5C 1564.83,2252.21 1564.66,2255.88 1563.5,2259.5C 1555.35,2254.15 1551.51,2256.15 1552,2265.5C 1556.38,2270.21 1560.38,2275.21 1564,2280.5C 1567.33,2287.17 1567.33,2293.83 1564,2300.5C 1557.64,2306.84 1550.31,2308.17 1542,2304.5C 1541.17,2300.79 1541.34,2297.12 1542.5,2293.5C 1552.82,2299.12 1556.66,2296.45 1554,2285.5C 1549.62,2280.79 1545.62,2275.79 1542,2270.5C 1538.1,2260.35 1540.6,2252.35 1549.5,2246.5 Z"/></g>
<g><path style="opacity:1" fill="#c0ba90" d="M 1581.5,2246.5 C 1585.17,2246.5 1588.83,2246.5 1592.5,2246.5C 1592.5,2266.5 1592.5,2286.5 1592.5,2306.5C 1588.83,2306.5 1585.17,2306.5 1581.5,2306.5C 1581.5,2286.5 1581.5,2266.5 1581.5,2246.5 Z"/></g>
<g><path style="opacity:1" fill="#beb88f" d="M 1621.5,2246.5 C 1625.44,2246.21 1629.27,2246.54 1633,2247.5C 1633.67,2251.17 1633.67,2254.83 1633,2258.5C 1630.26,2257.39 1627.43,2257.22 1624.5,2258C 1623.3,2258.9 1622.47,2260.07 1622,2261.5C 1620.46,2270.1 1620.12,2278.77 1621,2287.5C 1622.05,2295.75 1626.22,2298.09 1633.5,2294.5C 1636.54,2305.19 1632.54,2309.03 1621.5,2306C 1614.82,2302.18 1610.99,2296.34 1610,2288.5C 1609.11,2279.1 1609.45,2269.77 1611,2260.5C 1612.83,2254.51 1616.33,2249.85 1621.5,2246.5 Z"/></g>
<g><path style="opacity:1" fill="#bfb990" d="M 1658.5,2246.5 C 1662.5,2246.5 1666.5,2246.5 1670.5,2246.5C 1674.17,2266.5 1677.83,2286.5 1681.5,2306.5C 1677.83,2306.5 1674.17,2306.5 1670.5,2306.5C 1669.83,2302.5 1669.17,2298.5 1668.5,2294.5C 1665.5,2294.5 1662.5,2294.5 1659.5,2294.5C 1659.35,2298.26 1658.68,2301.93 1657.5,2305.5C 1654.23,2306.49 1650.9,2306.82 1647.5,2306.5C 1650.91,2286.45 1654.58,2266.45 1658.5,2246.5 Z"/></g>
<g><path style="opacity:1" fill="#c0bb91" d="M 1695.5,2246.5 C 1699.17,2246.5 1702.83,2246.5 1706.5,2246.5C 1706.5,2263.17 1706.5,2279.83 1706.5,2296.5C 1710.17,2296.5 1713.83,2296.5 1717.5,2296.5C 1717.5,2299.83 1717.5,2303.17 1717.5,2306.5C 1710.17,2306.5 1702.83,2306.5 1695.5,2306.5C 1695.5,2286.5 1695.5,2266.5 1695.5,2246.5 Z"/></g>
<g><path style="opacity:1" fill="#010100" d="M 1220.5,2256.5 C 1226.18,2257.02 1228.84,2260.18 1228.5,2266C 1228.8,2271.86 1226.13,2275.02 1220.5,2275.5C 1220.5,2269.17 1220.5,2262.83 1220.5,2256.5 Z"/></g>
<g><path style="opacity:1" fill="#100f0c" d="M 965.5,2266.5 C 967.246,2272.25 968.246,2278.25 968.5,2284.5C 966.833,2284.5 965.167,2284.5 963.5,2284.5C 964.385,2278.53 965.051,2272.53 965.5,2266.5 Z"/></g>
<g><path style="opacity:1" fill="#100f0c" d="M 1084.5,2266.5 C 1086.25,2272.25 1087.25,2278.25 1087.5,2284.5C 1085.83,2284.5 1084.17,2284.5 1082.5,2284.5C 1083.38,2278.53 1084.05,2272.53 1084.5,2266.5 Z"/></g>
<g><path style="opacity:1" fill="#100f0c" d="M 1336.5,2266.5 C 1338.25,2272.25 1339.25,2278.25 1339.5,2284.5C 1337.83,2284.5 1336.17,2284.5 1334.5,2284.5C 1335.38,2278.53 1336.05,2272.53 1336.5,2266.5 Z"/></g>
<g><path style="opacity:1" fill="#100f0c" d="M 1663.5,2266.5 C 1665.25,2272.25 1666.25,2278.25 1666.5,2284.5C 1664.83,2284.5 1663.17,2284.5 1661.5,2284.5C 1662.38,2278.53 1663.05,2272.53 1663.5,2266.5 Z"/></g>
</svg>
